<mxfile host="app.diagrams.net" modified="2023-12-09T21:53:52.870Z" agent="Mozilla/5.0 (Macintosh; Intel Mac OS X 10_15_7) AppleWebKit/605.1.15 (KHTML, like Gecko) Version/17.1 Safari/605.1.15" version="22.1.7" etag="h0gYiU5QrQuMzNxnO2zk" type="github">
  <diagram name="Pagina-1" id="k2mM_DIAP5eT5s3qoMqE">
    <mxGraphModel>
      <root>
        <mxCell id="0" />
        <mxCell id="1" parent="0" />
      </root>
    </mxGraphModel>
  </diagram>
</mxfile>
